<?xml version="1.0" encoding="UTF-8" standalone="no"?>
<svg
   xmlns:dc="http://purl.org/dc/elements/1.1/"
   xmlns:cc="http://creativecommons.org/ns#"
   xmlns:rdf="http://www.w3.org/1999/02/22-rdf-syntax-ns#"
   xmlns:svg="http://www.w3.org/2000/svg"
   xmlns="http://www.w3.org/2000/svg"
   xmlns:sodipodi="http://sodipodi.sourceforge.net/DTD/sodipodi-0.dtd"
   xmlns:inkscape="http://www.inkscape.org/namespaces/inkscape"
   class="ionicon"
   viewBox="0 0 512 512"
   version="1.1"
   id="svg10"
   sodipodi:docname="gallery.svg"
   inkscape:version="1.0.2 (e86c870879, 2021-01-15)">
  <metadata
     id="metadata16">
    <rdf:RDF>
      <cc:Work
         rdf:about="">
        <dc:format>image/svg+xml</dc:format>
        <dc:type
           rdf:resource="http://purl.org/dc/dcmitype/StillImage" />
        <dc:title>Images</dc:title>
      </cc:Work>
    </rdf:RDF>
  </metadata>
  <defs
     id="defs14" />
  <sodipodi:namedview
     pagecolor="#ffffff"
     bordercolor="#666666"
     borderopacity="1"
     objecttolerance="10"
     gridtolerance="10"
     guidetolerance="10"
     inkscape:pageopacity="0"
     inkscape:pageshadow="2"
     inkscape:window-width="1676"
     inkscape:window-height="948"
     id="namedview12"
     showgrid="false"
     inkscape:zoom="1.0965679"
     inkscape:cx="207.70555"
     inkscape:cy="224.17961"
     inkscape:window-x="26"
     inkscape:window-y="23"
     inkscape:window-maximized="0"
     inkscape:current-layer="svg10" />
  <title
     id="title2">Images</title>
  <ellipse
     cx="373.14001"
     cy="183.4044"
     rx="46.290001"
     ry="57.84082"
     fill="none"
     id="ellipse4"
     style="stroke-width:1.12135" />
  <path
     d="M 80,73.594851 V 486.02506 a 20,25.148184 0 0 0 20,25.1482 h 392 a 20,25.148184 0 0 0 20,-25.1482 V 73.594851 A 20,25.148184 0 0 0 492,48.446663 H 100 A 20,25.148184 0 0 0 80,73.594851 Z m 293.14,51.968729 a 46,57.840823 0 1 1 -46.28,57.84081 46.19,58.079731 0 0 1 46.28,-57.84081 z M 111.73,472.60851 V 352.55107 l 122.76,-138.56647 93.78,117.37914 -113,141.24477 z m 368.27,0 H 259 L 403.58,291.5416 480,373.60011 Z"
     id="path6"
     style="fill:#adb7e6;fill-opacity:0.92889029;stroke-width:1.12135" />
  <path
     d="M 20,-52.146069 A 20,25.148184 0 0 0 0,-26.997884 V 405.55087 a 20,25.148184 0 0 0 20,25.14819 H 48 V 33.357759 A 20,25.148184 0 0 1 68,8.2095704 H 448 V -26.997884 a 20,25.148184 0 0 0 -20,-25.148185 z"
     id="path8"
     style="fill:#f8bf07;fill-opacity:1;stroke-width:1.12135" />
</svg>
